<?xml version="1.0" encoding="UTF-8"?>
<svg width="1200pt" height="1200pt" version="1.1" viewBox="0 0 1200 1200" xmlns="http://www.w3.org/2000/svg">
 <path d="m1029.2 933.37c-9.1875 7.6875-164.06-675-168.74-675 30.188-14.062 50.906-42.797 54.703-75.891 3.8438-33.047-9.7969-65.766-36-86.297-26.203-20.578-61.172-26.062-92.391-14.531-31.266 11.578-54.234 38.484-60.75 71.156h-461.26c-8.625-45.094-48.047-77.719-93.938-77.812-115.12 1.875-131.26 166.13-18.75 189.74v670.5c-34.734 6.8438-62.859 32.25-73.172 66.094s-1.125 70.641 23.906 95.672 61.828 34.219 95.672 23.906 59.25-38.438 66.094-73.172h670.69c8.9062 44.719 48.141 76.969 93.75 77.062 126.56-3.75 126.94-187.31 0.1875-191.44zm-40.125 8.8125c-27.75 12.938-47.719 38.25-53.812 68.25h-670.5c-7.6406-37.828-37.172-67.359-75-75v-670.69c37.828-7.6406 67.359-37.172 75-75h462.19c9.375 46.219 50.953 78.75 98.062 76.688z"/>
</svg>
